<svg width="50" height="50" viewBox="0 0 50 50" fill="none" xmlns="http://www.w3.org/2000/svg">
<g clip-path="url(#clip0_2087_136)">
<path d="M2.40435 17.2252V16.4252H3.20435H11.2679H12.0679V17.2252V48.5352V49.3352H11.2679H3.20435H2.40435V48.5352V17.2252Z" stroke="#E0DFD3" stroke-width="1.6" stroke-miterlimit="10"/>
<path d="M7.49994 12C4.4673 12 2 9.53268 2 6.49989C2 3.46721 4.4673 1 7.49994 1C10.5326 1 13 3.46721 13 6.49989C13 9.53268 10.5326 12 7.49994 12Z" fill="#E0DFD3"/>
<path d="M39.4943 49.3352H38.6948L38.6943 48.5356L38.6835 30.2081V30.2076C38.6835 27.2055 36.2393 24.7612 33.2365 24.7612C30.2336 24.7612 27.7895 27.2054 27.7895 30.2083V48.5352V49.3352H26.9895H18.9258H18.1258V48.5352V17.2251V16.4251H18.9258H26.4481H27.2481V17.2251V20.6168L27.6041 20.6188L27.6566 20.5373C27.6567 20.5373 27.6567 20.5373 27.6567 20.5372C29.7356 17.3097 33.2787 15.3827 37.128 15.3827C43.265 15.3827 48.2182 20.0817 48.3555 26.113L48.3555 26.1133L48.3585 26.249L48.3587 26.2579V26.2668V48.5352V49.3352H47.5587H39.4943Z" stroke="#E0DFD3" stroke-width="1.6"/>
</g>
<defs>
<clipPath id="clip0_2087_136">
<rect width="50" height="50" fill="white"/>
</clipPath>
</defs>
</svg>
