<svg width="70" height="70" viewBox="0 0 70 70" fill="none" xmlns="http://www.w3.org/2000/svg">
<g clip-path="url(#clip0_2087_76)">
<path d="M22.6245 23.7534L26.3841 35.9159H18.9641L22.6245 23.7534Z" fill="#E0DFD3"/>
<path d="M57.6042 0.875H12.3958C5.55042 0.875 0 6.42542 0 13.2708V56.7292C0 63.5746 5.55042 69.125 12.3958 69.125H57.6042C64.4496 69.125 70 63.5746 70 56.7292V13.2708C70 6.42542 64.4496 0.875 57.6042 0.875ZM37.0913 49H30.9867C30.7679 49.0233 30.5696 48.8833 30.5171 48.6704L28.1196 41.7083H17.2725L15.0646 48.5771C15.0033 48.8367 14.7671 49.0117 14.5017 49H9.00958C8.69458 49 8.58667 48.8279 8.68 48.4837L18.0717 21.5483C18.165 21.2654 18.2613 20.9912 18.3546 20.6325C18.4771 20.0054 18.5383 19.3667 18.5413 18.7279C18.5179 18.5675 18.6287 18.4217 18.7863 18.3983C18.8125 18.3954 18.8417 18.3954 18.8679 18.3983H26.3346C26.5533 18.3983 26.6787 18.4771 26.7079 18.6346L37.3683 48.5304C37.4646 48.8425 37.3713 49 37.0913 49ZM59.9813 37.3742C59.9346 37.9371 59.8937 38.3454 59.8646 38.5962C59.8413 38.8121 59.6575 38.9725 59.4417 38.9725C59.255 38.9725 58.9342 38.9958 58.4792 39.0425C58.0242 39.0892 57.4613 39.1213 56.7875 39.1358C56.1138 39.1533 55.4021 39.0367 54.6525 39.0367H45.4008C45.5146 39.9525 45.8179 40.8333 46.2933 41.6237C46.8183 42.4083 47.5592 43.0179 48.4283 43.3854C49.6067 43.8958 50.8783 44.1438 52.1617 44.1175C53.1796 44.0971 54.1917 43.9863 55.1921 43.785C56.0846 43.6654 56.9567 43.435 57.7967 43.1083C57.9513 42.9829 58.0329 43.0617 58.0329 43.3417V47.8042C58.0417 47.9267 58.0154 48.0463 57.9629 48.1571C57.9104 48.2417 57.8375 48.3146 57.7529 48.3671C56.8225 48.7783 55.8454 49.07 54.8421 49.2333C53.48 49.49 52.0975 49.6067 50.7092 49.5863C47.2004 49.5863 43.7617 48.5683 41.4575 45.7829C39.6433 43.5867 38.8267 40.5533 38.8267 37.7067C38.8267 34.6179 39.7571 31.4913 41.7375 29.0908C43.8842 26.4921 46.8387 25.4071 50.1433 25.4071C52.9813 25.4071 55.9212 26.3608 57.75 28.6242C59.2871 30.5229 60.0513 33.0808 60.0513 35.5046C60.0542 36.1842 60.0279 36.8083 59.9813 37.3742ZM49.91 30.4704C48.2971 30.3712 46.7746 31.2375 46.0367 32.6754C45.7129 33.3288 45.5 34.0317 45.4038 34.755H51.555C52.3075 34.755 52.8617 34.7492 53.2233 34.7317C53.4625 34.7083 53.6958 34.6296 53.9029 34.5071V34.2242C53.8942 33.8567 53.83 33.4921 53.7163 33.145C53.1942 31.5 51.6367 30.4033 49.91 30.4704Z" fill="#E0DFD3"/>
</g>
<defs>
<clipPath id="clip0_2087_76">
<rect width="70" height="70" fill="white"/>
</clipPath>
</defs>
</svg>
