<svg width="70" height="70" viewBox="0 0 70 70" fill="none" xmlns="http://www.w3.org/2000/svg">
<g clip-path="url(#clip0_2087_93)">
<path d="M28.4375 23.7417H28.3792L24.7625 35.9042H32.1708L28.4375 23.7417ZM28.4375 23.7417H28.3792L24.7625 35.9042H32.1708L28.4375 23.7417ZM57.6042 0.875H12.3958C5.54167 0.875 0 6.41667 0 13.2708V56.7292C0 63.5833 5.54167 69.125 12.3958 69.125H57.6042C64.4583 69.125 70 63.5833 70 56.7292V13.2708C70 6.41667 64.4583 0.875 57.6042 0.875ZM42.875 49.0875H36.7792C36.575 49.1167 36.3708 48.9708 36.3125 48.7667L33.9208 41.825H23.0708L20.8542 48.6792C20.7958 48.9417 20.5625 49.1167 20.3 49.0875H14.8167C14.4958 49.0875 14.4083 48.9125 14.4958 48.5625L23.8875 21.525C23.975 21.2333 24.0625 20.9125 24.1792 20.5625C24.2958 19.95 24.3542 19.3083 24.3542 18.6667C24.325 18.5208 24.4417 18.375 24.5875 18.3458H32.1417C32.375 18.3458 32.4917 18.4333 32.5208 18.5792L43.1667 48.6208C43.2542 48.9417 43.1667 49.0875 42.875 49.0875ZM52.7917 48.65C52.7917 48.9708 52.675 49.1167 52.4125 49.1167H46.6958C46.4042 49.1167 46.2583 48.9417 46.2583 48.65V26.1917C46.2583 25.9 46.375 25.7833 46.6375 25.7833H52.4125C52.675 25.7833 52.7917 25.9292 52.7917 26.1917V48.65ZM52.1792 22.3125C51.5083 23.0125 50.5167 23.3917 49.525 23.3333C48.5625 23.3625 47.6292 22.9833 46.9292 22.3125C46.2583 21.5833 45.9083 20.6208 45.9375 19.6292C45.9083 18.6375 46.2875 17.7042 46.9875 17.0333C47.6875 16.3625 48.6208 16.0125 49.5833 16.0125C50.7208 16.0125 51.5958 16.3625 52.2375 17.0333C52.8792 17.7333 53.2292 18.6667 53.2 19.6292C53.2292 20.6208 52.8792 21.5833 52.1792 22.3125ZM28.3792 23.7417L24.7625 35.9042H32.1708L28.4375 23.7417H28.3792Z" fill="#E0DFD3"/>
</g>
<defs>
<clipPath id="clip0_2087_93">
<rect width="70" height="70" fill="white"/>
</clipPath>
</defs>
</svg>
