<svg width="70" height="70" viewBox="0 0 70 70" fill="none" xmlns="http://www.w3.org/2000/svg">
<g clip-path="url(#clip0_2087_87)">
<path d="M53.41 24.0479C56.9742 21.7058 59.3338 17.6692 59.3338 13.0958C59.3338 5.87417 53.4567 0 46.235 0H23.765C16.5433 0 10.6663 5.87417 10.6663 13.0958C10.6663 17.6692 13.0258 21.7058 16.59 24.0479C13.0258 26.39 10.6663 30.4267 10.6663 35C10.6663 39.5733 13.0258 43.61 16.59 45.9521C13.0258 48.2913 10.6663 52.3279 10.6663 56.9042C10.6663 64.1258 16.5725 70 23.835 70C31.1733 70 37.1467 64.0617 37.1467 56.7613V44.6833C39.4742 46.8037 42.5658 48.0958 45.9521 48.0958H46.235C53.4567 48.0958 59.3338 42.2217 59.3338 35C59.3338 30.4267 56.9742 26.39 53.41 24.0479ZM37.1438 4.29042H46.235C51.0913 4.29042 55.0433 8.23958 55.0433 13.0958C55.0433 17.9521 51.0913 21.9042 46.235 21.9042H37.1438V4.29042ZM14.9567 13.0958C14.9567 8.23958 18.9088 4.29042 23.765 4.29042H32.8563V21.9042H23.765C18.9088 21.9042 14.9567 17.9521 14.9567 13.0958ZM14.9567 35C14.9567 30.1438 18.9088 26.1946 23.765 26.1946H32.8563V43.8083H23.7096C18.8796 43.7763 14.9567 39.8358 14.9567 35ZM32.8563 56.7613C32.8563 61.6963 28.8079 65.7096 23.835 65.7096C18.9408 65.7096 14.9567 61.7604 14.9567 56.9042C14.9567 52.0479 18.9088 48.0958 23.765 48.0958H32.8563V56.7613ZM46.235 43.8083H45.9521C41.0958 43.8083 37.1467 39.8563 37.1467 35C37.1467 30.1438 41.0958 26.1946 45.9521 26.1946H46.235C51.0913 26.1946 55.0433 30.1438 55.0433 35C55.0433 39.8563 51.0913 43.8083 46.235 43.8083Z" fill="#E0DFD3"/>
</g>
<defs>
<clipPath id="clip0_2087_87">
<rect width="70" height="70" fill="white"/>
</clipPath>
</defs>
</svg>
