<svg width="70" height="70" viewBox="0 0 70 70" fill="none" xmlns="http://www.w3.org/2000/svg">
<path fill-rule="evenodd" clip-rule="evenodd" d="M3.28414 48.7622C-1.09477 44.4218 -1.0947 37.3846 3.28427 33.0442L15.1778 21.2553C18.8796 17.5862 24.5257 17.0187 28.8288 19.553C30.1598 20.3368 30.1481 22.135 29.0534 23.2201C27.9586 24.3052 26.1717 24.2119 24.6856 23.7811C22.7828 23.2294 20.643 23.6974 19.1422 25.1849L7.24873 36.9736C5.05925 39.1439 5.05922 42.6625 7.24866 44.8327C9.43817 47.003 12.9881 47.003 15.1776 44.8327L38.9643 21.2555C43.3434 16.9151 50.4432 16.915 54.8221 21.2555L66.7157 33.0442C71.0948 37.3845 71.0948 44.4218 66.7157 48.7622C62.3368 53.1027 55.237 53.1027 50.8581 48.7622L46.8934 44.8327L41.9379 49.7447C38.236 53.4139 32.5901 53.9813 28.2869 51.447C26.9558 50.6632 26.9675 48.865 28.0623 47.7799C29.157 46.6947 30.9441 46.7881 32.43 47.2189C34.3328 47.7706 36.4726 47.3026 37.9734 45.8151L43.0706 40.7628C45.1819 38.6701 48.6051 38.6701 50.7163 40.7628L54.8224 44.8327C57.0119 47.0029 60.5618 47.0029 62.7514 44.8327C64.9408 42.6625 64.9408 39.1439 62.7512 36.9736L50.8578 25.185C48.6682 23.0148 45.1184 23.0148 42.9288 25.1851L19.1421 48.7624C14.763 53.1028 7.66315 53.1028 3.28414 48.7622Z" fill="#E0DFD3"/>
</svg>
