<svg width="70" height="70" viewBox="0 0 70 70" fill="none" xmlns="http://www.w3.org/2000/svg">
<g clip-path="url(#clip0_2087_80)">
<path d="M30.7476 26.2355C31.223 26.9822 31.4709 27.8776 31.4417 28.8168C31.4417 30.1001 31.1501 31.0918 30.5376 31.8209C29.1871 33.4309 26.7896 33.8918 24.7917 33.8918H23.2459C22.8959 33.8918 22.5167 33.8626 22.1084 33.8334V24.0334C22.3126 24.0043 22.7209 23.9751 23.3042 24.0043C23.8584 23.9751 24.5292 23.9751 25.2876 23.9751C27.2971 23.9751 29.5926 24.4213 30.7476 26.2355Z" fill="#E0DFD3"/>
<path d="M57.6042 0.875H12.3958C5.54167 0.875 0 6.41667 0 13.2708V56.7292C0 63.5833 5.54167 69.125 12.3958 69.125H57.6042C64.4583 69.125 70 63.5833 70 56.7292V13.2708C70 6.41667 64.4583 0.875 57.6042 0.875ZM36.05 34.8542C34.8833 36.4875 33.25 37.7125 31.3542 38.4125C29.3708 39.1417 27.1833 39.4042 24.7917 39.4042C24.0917 39.4042 23.625 39.4042 23.3333 39.375C23.0417 39.3458 22.6333 39.3458 22.0792 39.3458V48.7083C22.1083 48.9125 21.9625 49.0875 21.7583 49.1167H16.1C15.8667 49.1167 15.75 49 15.75 48.7375V18.725C15.75 18.5208 15.8375 18.4042 16.0417 18.4042C16.5375 18.4042 17.0042 18.4042 17.675 18.375C18.375 18.3458 19.1042 18.3458 19.8917 18.3167C20.6792 18.2875 21.525 18.2875 22.4292 18.2583C23.3333 18.2292 24.2083 18.2292 25.0833 18.2292C27.475 18.2292 29.4583 18.5208 31.0917 19.1333C32.55 19.6292 33.8917 20.4458 35 21.525C35.9333 22.4583 36.6625 23.5958 37.1292 24.85C37.5667 26.075 37.8 27.3292 37.8 28.6417C37.8 31.15 37.2167 33.2208 36.05 34.8542ZM56.7292 46.2C55.9125 47.3667 54.775 48.2708 53.4625 48.7958C52.0333 49.4083 50.2833 49.7292 48.1833 49.7292C46.8417 49.7292 45.5292 49.6125 44.2167 49.35C43.1958 49.175 42.175 48.8542 41.2417 48.4167C41.0375 48.3 40.8917 48.0958 40.9208 47.8625V42.7875C40.9208 42.7 40.95 42.5833 41.0375 42.525C41.125 42.4667 41.2125 42.4958 41.3 42.5542C42.4375 43.225 43.6333 43.6917 44.9167 43.9833C46.025 44.275 47.1917 44.4208 48.3583 44.4208C49.4667 44.4208 50.2542 44.275 50.7792 44.0125C51.2458 43.8083 51.5667 43.3125 51.5667 42.7875C51.5667 42.3792 51.3333 42 50.8667 41.6208C50.4 41.2417 49.4375 40.8042 48.0083 40.25C46.5208 39.725 45.15 39.025 43.8667 38.15C42.9625 37.5083 42.2042 36.6625 41.65 35.6708C41.1833 34.7375 40.95 33.7167 40.9792 32.6958C40.9792 31.4417 41.3292 30.2458 41.9708 29.1667C42.7 28 43.7792 27.0667 45.0333 26.4833C46.4042 25.7833 48.125 25.4625 50.1958 25.4625C51.3917 25.4625 52.6167 25.55 53.8125 25.725C54.6875 25.8417 55.5333 26.075 56.3208 26.3958C56.4375 26.425 56.5542 26.5417 56.6125 26.6583C56.6417 26.775 56.6708 26.8917 56.6708 27.0083V31.7625C56.6708 31.8792 56.6125 31.9958 56.525 32.0542C56.2625 32.1125 56.1167 32.1125 56 32.0542C55.125 31.5875 54.1917 31.2667 53.2 31.0625C52.1208 30.8292 51.0417 30.6833 49.9333 30.6833C49.35 30.6542 48.7375 30.7417 48.1833 30.8875C47.8042 30.975 47.4833 31.1792 47.2792 31.4708C47.1333 31.7042 47.0458 31.9958 47.0458 32.2583C47.0458 32.5208 47.1625 32.7833 47.3375 33.0167C47.6 33.3375 47.95 33.6 48.3292 33.8042C49 34.1542 49.7 34.475 50.4 34.7667C51.975 35.2917 53.4917 36.0208 54.8917 36.8958C55.8542 37.5083 56.6417 38.325 57.1958 39.3167C57.6625 40.25 57.8958 41.2708 57.8667 42.3208C57.8958 43.6917 57.4875 45.0625 56.7292 46.2Z" fill="#E0DFD3"/>
</g>
<defs>
<clipPath id="clip0_2087_80">
<rect width="70" height="70" fill="white"/>
</clipPath>
</defs>
</svg>
