<svg width="94" height="95" viewBox="0 0 94 95" fill="none" xmlns="http://www.w3.org/2000/svg">
<path opacity="0.04" d="M47.0002 0L93.602 35.9311L75.8017 94.0689H18.1987L0.398438 35.9311L47.0002 0Z" fill="#F7F6E8"/>
<circle cx="46.7731" cy="33.4928" r="5.49284" fill="#F7F6E8"/>
<path d="M28.9591 37.5738L28.5143 32.9386C28.4307 32.0682 29.4257 31.5174 30.119 32.0502L42.1562 41.3007C42.2843 41.3992 42.4344 41.4651 42.5937 41.4929L47.2373 42.3031C47.3056 42.315 47.3725 42.334 47.4369 42.3598L59.2398 47.0835C59.5091 47.1912 59.7183 47.4106 59.8132 47.6847L61.2645 51.876C61.5479 52.6945 60.7276 53.4617 59.9299 53.1242L50.6929 49.2162C49.963 48.9074 49.1811 49.5299 49.3184 50.3104L50.0498 54.4698C50.0918 54.7086 50.2192 54.9241 50.4083 55.076L63.7782 65.8217C63.9232 65.9383 64.0328 66.0929 64.0947 66.2684L65.9391 71.4942C66.265 72.4175 65.2071 73.2105 64.4122 72.6388L49.4057 61.8458C48.8289 61.431 48.0157 61.733 47.8495 62.4237L43.5981 80.0922C43.5354 80.3531 43.3704 80.5778 43.1404 80.7158L38.0773 83.7536C37.3124 84.2126 36.3748 83.5161 36.5933 82.6512L42.086 60.9064C42.1194 60.774 42.1254 60.6362 42.1035 60.5014L39.8972 46.9001C39.857 46.6525 39.7253 46.429 39.528 46.274L29.3366 38.2645C29.1216 38.0956 28.9852 37.846 28.9591 37.5738Z" stroke="#F7F6E8" stroke-width="1.6"/>
</svg>
