<svg width="98" height="104" viewBox="0 0 98 104" fill="none" xmlns="http://www.w3.org/2000/svg">
<path d="M49 0L95.6018 35.9311L77.8015 94.0689H20.1985L2.39823 35.9311L49 0Z" fill="#1B1B1A"/>
<circle cx="68" cy="36" r="8" fill="#F7F6E8"/>
<path d="M69.5506 38.0804C69.7881 37.855 69.8644 37.5077 69.7431 37.2036C69.6218 36.8995 69.3274 36.7 69 36.7H26.5C26.1672 36.7 25.8692 36.906 25.7516 37.2174C25.634 37.5287 25.7215 37.8803 25.9712 38.1003L46.7 56.3614V73.6L41.02 77.86C40.7445 78.0666 40.6322 78.4263 40.7411 78.753C40.8499 79.0797 41.1557 79.3 41.5 79.3H56C56.3499 79.3 56.6593 79.0726 56.7636 78.7385C56.868 78.4045 56.7431 78.0414 56.4554 77.8422L50.3 73.5808V56.3438L69.5506 38.0804Z" fill="#F7F6E8" fill-opacity="0.04" stroke="#F7F6E8" stroke-width="1.6" stroke-linejoin="round"/>
</svg>
