<svg width="98" height="104" viewBox="0 0 98 104" fill="none" xmlns="http://www.w3.org/2000/svg">
<path d="M49 0L95.6018 35.9311L77.8015 94.0689H20.1985L2.39823 35.9311L49 0Z" fill="#1B1B1A"/>
<circle cx="48.5" cy="41.5" r="13.5" fill="#F7F6E8"/>
<path d="M48.2843 47.1274L48.5069 47.1898L48.7284 47.1238L48.7286 47.1237L48.7298 47.1234L48.7353 47.1217L48.7581 47.115L48.8502 47.088C48.9319 47.0642 49.0533 47.0291 49.2113 46.9843C49.5273 46.8945 49.9893 46.7656 50.5704 46.61C51.7328 46.2987 53.3705 45.8809 55.2693 45.4551C59.0775 44.6013 63.894 43.7257 68.0258 43.6008C68.1235 43.5978 68.2 43.6685 68.2 43.7727V43.8007V43.829V43.8576V43.8865V43.9157V43.9453V43.9751V44.0053V44.0358V44.0666V44.0977V44.129V44.1607V44.1927V44.225V44.2576V44.2905V44.3237V44.3572V44.391V44.4251V44.4595V44.4941V44.5291V44.5643V44.5998V44.6357V44.6718V44.7081V44.7448V44.7818V44.819V44.8565V44.8943V44.9323V44.9707V45.0093V45.0482V45.0873V45.1268V45.1664V45.2064V45.2466V45.2871V45.3279V45.3689V45.4102V45.4517V45.4935V45.5356V45.5779V45.6204V45.6633V45.7063V45.7497V45.7932V45.8371V45.8811V45.9254V45.97V46.0148V46.0599V46.1051V46.1507V46.1964V46.2424V46.2887V46.3352V46.3819V46.4288V46.476V46.5234V46.571V46.6189V46.667V46.7153V46.7638V46.8126V46.8616V46.9108V46.9602V47.0098V47.0597V47.1097V47.16V47.2105V47.2612V47.3121V47.3633V47.4146V47.4661V47.5179V47.5698V47.622V47.6743V47.7269V47.7796V47.8326V47.8857V47.9391V47.9926V48.0463V48.1002V48.1544V48.2087V48.2631V48.3178V48.3727V48.4277V48.4829V48.5383V48.5939V48.6497V48.7056V48.7617V48.818V48.8745V48.9311V48.9879V49.0449V49.1021V49.1594V49.2169V49.2745V49.3323V49.3903V49.4484V49.5067V49.5652V49.6238V49.6826V49.7415V49.8006V49.8598V49.9192V49.9787V50.0384V50.0982V50.1582V50.2183V50.2786V50.339V50.3996V50.4603V50.5211V50.582V50.6431V50.7044V50.7658V50.8273V50.8889V50.9507V51.0126V51.0746V51.1367V51.199V51.2614V51.3239V51.3866V51.4493V51.5122V51.5752V51.6383V51.7016V51.7649V51.8284V51.8919V51.9556V52.0194V52.0833V52.1473V52.2114V52.2756V52.34V52.4044V52.4689V52.5335V52.5982V52.663V52.7279V52.7929V52.858V52.9232V52.9885V53.0539V53.1193V53.1848V53.2505V53.3162V53.382V53.4478V53.5138V53.5798V53.6459V53.7121V53.7784V53.8447V53.9111V53.9776V54.0442V54.1108V54.1775V54.2442V54.311V54.3779V54.4449V54.5119V54.5789V54.6461V54.7132V54.7805V54.8478V54.9151V54.9825V55.05V55.1175V55.1851V55.2527V55.3203V55.388V55.4557V55.5235V55.5913V55.6592V55.7271V55.7951V55.863V55.931V55.9991V56.0672V56.1353V56.2034V56.2716V56.3398V56.408V56.4763V56.5445V56.6128V56.6812V56.7495V56.8179V56.8862V56.9546V57.023V57.0915V57.1599V57.2283V57.2968V57.3653V57.4337V57.5022V57.5707V57.6392V57.7077V57.7762V57.8447V57.9132V57.9817V58.0502V58.1187V58.1871V58.2556V58.3241V58.3925V58.461V58.5294V58.5978V58.6662V58.7346V58.803V58.8713V58.9397V59.008V59.0763V59.1445V59.2128V59.281V59.3492V59.4174V59.4855V59.5536V59.6217V59.6897V59.7577V59.8257V59.8936V59.9615V60.0293V60.0972V60.1649V60.2326V60.3003V60.368V60.4356V60.5031V60.5706V60.638V60.7054V60.7727V60.84V60.9073V60.9744V61.0415V61.1086V61.1756V61.2425V61.3094V61.3762V61.4429V61.5096V61.5762V61.6427V61.7091V61.7755V61.8418V61.9081V61.9743V62.0403V62.1063V62.1723V62.2381V62.3039V62.3696V62.4352V62.5007V62.5661V62.6314V62.6967V62.7619V62.8269V62.8919V62.9568V63.0216V63.0862V63.1508V63.2153V63.2797V63.344V63.4082V63.4722V63.5362V63.6001V63.6638V63.7275V63.791V63.8545V63.9178V63.981V64.044V64.107V64.1699V64.2326V64.2952V64.3577V64.42V64.4823V64.5444V64.6064V64.6682V64.73V64.7916V64.853V64.9144V64.9756V65.0366V65.0976V65.1583V65.219V65.2795V65.3399V65.4001V65.4602V65.5201V65.5799V65.6395V65.699V65.7583V65.8175V65.8766V65.9354V65.9942V66.0527V66.1111V66.1694V66.2275V66.2854V66.3432V66.4008V66.4582V66.5155V66.5726V66.6295V66.6863V66.7429V66.7993V66.8555V66.9116V66.9675V67.0232V67.0787V67.1341V67.1892V67.2442V67.299V67.3536V67.4081V67.4623V67.5163V67.5702V67.6239V67.6774V67.7306V67.7837V67.8366V67.8893V67.9418V67.9941V68.0462V68.0981V68.1498V68.2012V68.2525V68.3036V68.3544V68.4051V68.4555V68.5057V68.5557V68.6055V68.6551V68.7044V68.7536V68.8025V68.8512V68.8997V68.9479V68.9959V69.0437V69.0913V69.1386V69.1857V69.2326V69.2792V69.3256V69.3718V69.4178V69.4634V69.5089V69.5541V69.5991V69.6438V69.6883V69.7326V69.7766V69.8203V69.8638V69.9071V69.9501V69.9928V70.0353V70.0775V70.1195V70.1612V70.2027V70.2439V70.2848V70.3255V70.3659V70.4061V70.446V70.4856V70.5249V70.564V70.6028V70.6413V70.6796V70.7176V70.7553V70.7927V70.8298V70.8667V70.9033V70.9396V70.9756V71.0113V71.0468V71.0819V71.1168V71.1514V71.1857V71.2197V71.2534V71.2868V71.3199V71.3527V71.3852V71.4174V71.4493V71.4809V71.5122V71.5432V71.5739V71.6043V71.6343V71.6641V71.6936V71.7227V71.7515V71.78V71.8082V71.8361V71.8637C68.2 71.964 68.1177 72.0673 67.9803 72.071C63.7039 72.1848 58.7763 72.9774 54.9394 73.7344C53.0163 74.1138 51.358 74.4862 50.1799 74.7638C49.5908 74.9026 49.1214 75.0179 48.7987 75.0985C48.6767 75.129 48.5757 75.1546 48.497 75.1746C48.4158 75.1545 48.3106 75.1287 48.1831 75.0977C47.8526 75.0174 47.3723 74.9026 46.771 74.7642C45.5687 74.4876 43.8812 74.1164 41.9389 73.7379C38.0649 72.9828 33.1374 72.1904 29.0207 72.0722C28.8792 72.0681 28.8 71.9643 28.8 71.8667L28.8 43.9991C28.8 43.8822 28.8894 43.8117 28.9757 43.8142C33.1121 43.9317 37.9319 44.7556 41.7408 45.5583C43.6402 45.9586 45.2784 46.3515 46.4413 46.6442C47.0226 46.7906 47.4847 46.9117 47.8009 46.9962C47.959 47.0384 48.0805 47.0714 48.1622 47.0938L48.2544 47.1191L48.2773 47.1255L48.2828 47.127L48.2841 47.1274L48.2843 47.1274Z" fill="#F7F6E8" fill-opacity="0.04" stroke="#F7F6E8" stroke-width="1.6"/>
<circle cx="27.5" cy="56.5" r="4.5" fill="#F7F6E8"/>
<circle cx="69.5" cy="56.5" r="4.5" fill="#F7F6E8"/>
</svg>
